<?xml version="1.0" standalone="no"?>
<!DOCTYPE svg PUBLIC "-//W3C//DTD SVG 20010904//EN"
 "http://www.w3.org/TR/2001/REC-SVG-20010904/DTD/svg10.dtd">
<svg version="1.0" xmlns="http://www.w3.org/2000/svg"
 width="100.000000pt" height="100.000000pt" viewBox="0 0 100.000000 100.000000"
 preserveAspectRatio="xMidYMid meet">
<metadata>
Created by potrace 1.14, written by Peter Selinger 2001-2017
</metadata>
<g transform="translate(0.000000,100.000000) scale(0.100000,-0.100000)"
fill="#000000" stroke="none">
<path d="M484 945 c1 -41 -2 -55 -12 -55 -8 0 -30 -16 -49 -35 -33 -33 -35
-39 -31 -86 5 -50 37 -99 65 -99 7 0 13 -2 13 -5 0 -15 -104 -242 -115 -250
-7 -6 -32 -10 -55 -8 -28 1 -40 -2 -37 -10 2 -7 20 -12 40 -11 21 0 37 -5 37
-10 0 -6 -20 -54 -43 -106 -41 -91 -46 -117 -24 -131 6 -4 1 -31 -12 -70 -11
-34 -19 -64 -18 -66 2 -2 41 81 87 184 47 104 88 191 92 194 7 5 22 5 59 0 4
-1 9 -10 12 -22 6 -23 27 -17 27 7 0 8 3 14 8 15 63 8 54 20 148 -188 48 -106
88 -192 90 -190 2 1 -7 31 -19 67 -17 48 -19 64 -9 67 21 8 13 48 -28 141 -22
49 -40 94 -40 100 0 6 17 9 40 7 28 -2 40 1 40 10 0 9 -15 12 -49 11 l-50 -1
-54 125 -55 125 39 36 c22 20 39 44 40 55 4 67 -19 117 -63 135 -26 11 -28 16
-28 65 0 50 -2 54 -24 54 -22 0 -23 -4 -22 -55z m69 -109 c10 -8 20 -30 24
-49 4 -29 1 -40 -20 -61 -33 -33 -71 -33 -102 -1 -30 30 -32 64 -4 99 23 29
71 35 102 12z m27 -430 c0 -2 -10 -2 -22 0 -13 1 -26 3 -30 3 -5 1 -8 10 -8
21 0 11 -7 20 -15 20 -8 0 -15 -8 -15 -19 0 -19 -30 -33 -47 -22 -6 3 5 41 25
89 l35 82 39 -86 c21 -47 38 -87 38 -88z"/>
</g>
</svg>
